<svg xmlns="http://www.w3.org/2000/svg" viewBox="0 0 280 280" fill="none" shape-rendering="auto"><metadata xmlns:rdf="http://www.w3.org/1999/02/22-rdf-syntax-ns#" xmlns:xsi="http://www.w3.org/2001/XMLSchema-instance" xmlns:dc="http://purl.org/dc/elements/1.1/" xmlns:dcterms="http://purl.org/dc/terms/"><rdf:RDF><rdf:Description><dc:title>Avataaars</dc:title><dc:creator>Pablo Stanley</dc:creator><dc:source xsi:type="dcterms:URI">https://avataaars.com/</dc:source><dcterms:license xsi:type="dcterms:URI">https://avataaars.com/</dcterms:license><dc:rights>Remix of „Avataaars” (https://avataaars.com/) by „Pablo Stanley”, licensed under „Free for personal and commercial use” (https://avataaars.com/)</dc:rights></rdf:Description></rdf:RDF></metadata><mask id="viewboxMask"><rect width="280" height="280" rx="0" ry="0" x="0" y="0" fill="#fff" /></mask><g mask="url(#viewboxMask)"><g transform="translate(8)"><path d="M132 36a56 56 0 0 0-56 56v6.17A12 12 0 0 0 66 110v14a12 12 0 0 0 10.3 11.88 56.04 56.04 0 0 0 31.7 44.73v18.4h-4a72 72 0 0 0-72 72v9h200v-9a72 72 0 0 0-72-72h-4v-18.39a56.04 56.04 0 0 0 31.7-44.73A12 12 0 0 0 198 124v-14a12 12 0 0 0-10-11.83V92a56 56 0 0 0-56-56Z" fill="#d08b5b"/><path d="M108 180.61v8a55.79 55.79 0 0 0 24 5.39c8.59 0 16.73-1.93 24-5.39v-8a55.79 55.79 0 0 1-24 5.39 55.79 55.79 0 0 1-24-5.39Z" fill="#000" fill-opacity=".1"/><g transform="translate(0 170)"><path d="M132.5 51.83c18.5 0 33.5-9.62 33.5-21.48 0-.36-.01-.7-.04-1.06A72 72 0 0 1 232 101.04V110H32v-8.95a72 72 0 0 1 67.05-71.83c-.03.37-.05.75-.05 1.13 0 11.86 15 21.48 33.5 21.48Z" fill="#3c4f5c"/><path d="M132.5 58.76c21.89 0 39.63-12.05 39.63-26.91 0-.6-.02-1.2-.08-1.8-2-.33-4.03-.59-6.1-.76.04.35.05.7.05 1.06 0 11.86-15 21.48-33.5 21.48S99 42.2 99 30.35c0-.38.02-.76.05-1.13-2.06.14-4.08.36-6.08.67-.07.65-.1 1.3-.1 1.96 0 14.86 17.74 26.91 39.63 26.91Z" fill="#000" fill-opacity=".08"/></g><g transform="translate(78 134)"><rect x="42" y="18" width="24" height="6" rx="3" fill="#000" fill-opacity=".7"/></g><g transform="translate(104 122)"><path fill-rule="evenodd" clip-rule="evenodd" d="M16 8c0 4.42 5.37 8 12 8s12-3.58 12-8" fill="#000" fill-opacity=".16"/></g><g transform="translate(76 90)"><path d="M44 22a14 14 0 1 1-28 0 14 14 0 0 1 28 0ZM96 22a14 14 0 1 1-28 0 14 14 0 0 1 28 0Z" fill="#fff"/><path d="M36 22a6 6 0 1 1-12 0 6 6 0 0 1 12 0ZM88 22a6 6 0 1 1-12 0 6 6 0 0 1 12 0Z" fill="#000" fill-opacity=".7"/></g><g transform="translate(76 82)"><path d="M15.61 15.18c4.24-5.76 6.88-5.48 13.31-.62l.67.5C34.41 18.73 36.7 20 40 20a2 2 0 1 0 0-4c-2.07 0-3.9-1.02-7.99-4.12l-.68-.52C27.57 8.53 25.37 7.3 22.63 7c-3.68-.4-7.05 1.48-10.24 5.83a2 2 0 1 0 3.22 2.36ZM96.39 15.18c-4.24-5.76-6.88-5.48-13.31-.62l-.67.5C77.58 18.73 75.29 20 72 20a2 2 0 1 1 0-4c2.07 0 3.9-1.02 7.99-4.12l.68-.52c3.76-2.83 5.96-4.07 8.7-4.37 3.68-.4 7.05 1.48 10.24 5.83a2 2 0 1 1-3.22 2.36Z" fill="#000" fill-opacity=".6"/></g><g transform="translate(-1)"><path d="M78 98c-.33 1.22-1.65 1.49-2 0-.72-10.3 0-62.27 57-63 57-.73 57.72 52.7 57 63-.35 1.49-1.67 1.22-2 0 .46-1.55-3.3-28.75-13-36-1.76-1.22-7.25-2.39-14.64-3.26L164 50l-6.98 8.38c-7.03-.7-15.36-1.13-23.7-1.13C114 57.23 94.61 59.48 91 62c-9.7 7.25-13.46 34.45-13 36Z" fill="#ecdcbf"/></g><g transform="translate(49 72)"><path fill-rule="evenodd" clip-rule="evenodd" d="M84.5 93.84c-11.5.38-16.64 5.88-20.5.29-2.91-4.2-1.7-11.26 1.01-15.23 3.86-5.65 9.1-2.92 14.95-3.56 1.6-.18 3.2-.62 4.54-1.34 1.36.72 2.95 1.16 4.55 1.34 5.85.64 11.09-2.09 14.94 3.56 2.72 3.97 3.93 11.03 1.03 15.23-3.87 5.6-9-.67-20.52-.29ZM140.4 26c-3.43 14.07-5 28.43-7.5 42.67-.5 2.97-1.07 5.93-1.68 8.88-.12.62-.25 2.92-.86 3.21-1.85.89-5.62-3.81-6.63-4.87-2.53-2.67-5.05-5.36-8.13-7.45a43.7 43.7 0 0 0-21.13-7.32c-3.18-.25-7.47.18-10.47 2-3-1.82-7.3-2.25-10.47-2-7.6.6-14.9 3.1-21.13 7.32-3.09 2.09-5.6 4.78-8.13 7.45-1 1.06-4.78 5.76-6.63 4.87-.61-.29-.74-2.6-.86-3.21-.6-2.95-1.17-5.91-1.7-8.88-2.47-14.24-4.05-28.6-7.47-42.67-1 0-1.87 18.75-1.98 20.5-.46 7.09-.98 14.03-.3 21.13 1.16 12.24 2.37 27.6 11.7 36.96 8.44 8.45 20.68 10.22 31.24 15.55 1.36.69 3.16 1.54 5.1 2.23 2.06 1.56 6.12 2.63 10.8 2.63 4.91 0 9.15-1.17 11.08-2.86 1.7-.65 3.27-1.39 4.48-2 10.56-5.33 22.8-7.1 31.24-15.55 9.33-9.36 10.54-24.72 11.7-36.96.68-7.1.16-14.04-.3-21.14-.1-1.74-.98-20.5-1.98-20.5Z" fill="#ecdcbf"/></g><g transform="translate(62 42)"><g fill-rule="evenodd" clip-rule="evenodd"><path d="M40 96a24 24 0 0 1-22.96-31H10.5a2.5 2.5 0 0 1 0-5h8c.23 0 .45.03.66.09a24 24 0 0 1 42.26 1.06A11.36 11.36 0 0 1 70.86 56c4.01 0 7.55 2.14 9.6 5.4a24 24 0 0 1 42.38-1.31c.2-.06.43-.1.66-.1h8a2.5 2.5 0 1 1 0 5h-6.54a24 24 0 1 1-46.6 2.83c-.08-4.37-3.45-7.83-7.5-7.83-3.73 0-6.89 2.94-7.42 6.83A24 24 0 0 1 40 96Zm0-4a20 20 0 1 0 0-40 20 20 0 0 0 0 40Zm82-20a20 20 0 1 1-40 0 20 20 0 0 1 40 0Z" fill="#000" fill-opacity=".1"/><path d="M40 94a24 24 0 0 1-22.96-31H10.5a2.5 2.5 0 0 1 0-5h8c.23 0 .45.03.66.09a24 24 0 0 1 42.26 1.06A11.36 11.36 0 0 1 70.86 54c4.01 0 7.55 2.14 9.6 5.4a24 24 0 0 1 42.38-1.31c.2-.06.43-.1.66-.1h8a2.5 2.5 0 1 1 0 5h-6.54a24 24 0 1 1-46.6 2.84c-.08-4.37-3.45-7.83-7.5-7.83-3.73 0-6.89 2.94-7.42 6.83A24 24 0 0 1 40 94Zm0-4a20 20 0 1 0 0-40 20 20 0 0 0 0 40Zm82-20a20 20 0 1 1-40 0 20 20 0 0 1 40 0Z" fill="#25557c"/></g></g></g></g></svg>